<mxfile host="app.diagrams.net" agent="Mozilla/5.0 (Windows NT 10.0; Win64; x64) AppleWebKit/537.36 (KHTML, like Gecko) Chrome/127.0.0.0 Safari/537.36 Edg/127.0.0.0" version="24.7.6">
  <diagram name="Page-1" id="XzWiyYvCrvDIPQm6cIMk">
    <mxGraphModel dx="1615" dy="940" grid="1" gridSize="10" guides="1" tooltips="1" connect="1" arrows="1" fold="1" page="1" pageScale="1" pageWidth="1169" pageHeight="1654" math="0" shadow="0">
      <root>
        <mxCell id="0" />
        <mxCell id="1" parent="0" />
        <mxCell id="dU6HxZh4ZYSRWgkDmvvh-1" value="&lt;font style=&quot;font-size: 16px;&quot;&gt;Page&lt;/font&gt;&lt;div&gt;&lt;font style=&quot;font-size: 16px;&quot;&gt;1&lt;/font&gt;&lt;/div&gt;" style="verticalLabelPosition=middle;verticalAlign=middle;html=1;shape=offPageConnector;rounded=0;size=0.5;labelPosition=center;align=center;" vertex="1" parent="1">
          <mxGeometry x="72" y="68" width="60" height="60" as="geometry" />
        </mxCell>
        <mxCell id="dU6HxZh4ZYSRWgkDmvvh-2" style="edgeStyle=orthogonalEdgeStyle;rounded=0;orthogonalLoop=1;jettySize=auto;html=1;exitX=1;exitY=0.5;exitDx=0;exitDy=0;exitPerimeter=0;entryX=0;entryY=0.5;entryDx=0;entryDy=0;" edge="1" parent="1" source="dU6HxZh4ZYSRWgkDmvvh-3" target="dU6HxZh4ZYSRWgkDmvvh-15">
          <mxGeometry relative="1" as="geometry" />
        </mxCell>
        <mxCell id="dU6HxZh4ZYSRWgkDmvvh-3" value="Schedule?" style="strokeWidth=2;html=1;shape=mxgraph.flowchart.decision;whiteSpace=wrap;" vertex="1" parent="1">
          <mxGeometry x="52" y="152" width="100" height="100" as="geometry" />
        </mxCell>
        <mxCell id="dU6HxZh4ZYSRWgkDmvvh-4" style="edgeStyle=orthogonalEdgeStyle;rounded=0;orthogonalLoop=1;jettySize=auto;html=1;exitX=0.5;exitY=1;exitDx=0;exitDy=0;entryX=0.5;entryY=0;entryDx=0;entryDy=0;entryPerimeter=0;" edge="1" parent="1" source="dU6HxZh4ZYSRWgkDmvvh-1" target="dU6HxZh4ZYSRWgkDmvvh-3">
          <mxGeometry relative="1" as="geometry" />
        </mxCell>
        <mxCell id="dU6HxZh4ZYSRWgkDmvvh-5" style="edgeStyle=orthogonalEdgeStyle;rounded=0;orthogonalLoop=1;jettySize=auto;html=1;exitX=1;exitY=0.5;exitDx=0;exitDy=0;exitPerimeter=0;entryX=0;entryY=0.5;entryDx=0;entryDy=0;" edge="1" parent="1" source="dU6HxZh4ZYSRWgkDmvvh-6" target="dU6HxZh4ZYSRWgkDmvvh-17">
          <mxGeometry relative="1" as="geometry" />
        </mxCell>
        <mxCell id="dU6HxZh4ZYSRWgkDmvvh-6" value="Events?" style="strokeWidth=2;html=1;shape=mxgraph.flowchart.decision;whiteSpace=wrap;" vertex="1" parent="1">
          <mxGeometry x="52" y="279" width="100" height="100" as="geometry" />
        </mxCell>
        <mxCell id="dU6HxZh4ZYSRWgkDmvvh-7" style="edgeStyle=orthogonalEdgeStyle;rounded=0;orthogonalLoop=1;jettySize=auto;html=1;exitX=0.5;exitY=1;exitDx=0;exitDy=0;exitPerimeter=0;entryX=0.5;entryY=0;entryDx=0;entryDy=0;entryPerimeter=0;" edge="1" parent="1" source="dU6HxZh4ZYSRWgkDmvvh-3" target="dU6HxZh4ZYSRWgkDmvvh-6">
          <mxGeometry relative="1" as="geometry" />
        </mxCell>
        <mxCell id="dU6HxZh4ZYSRWgkDmvvh-8" value="" style="edgeStyle=orthogonalEdgeStyle;rounded=0;orthogonalLoop=1;jettySize=auto;html=1;" edge="1" parent="1" source="dU6HxZh4ZYSRWgkDmvvh-10" target="dU6HxZh4ZYSRWgkDmvvh-19">
          <mxGeometry relative="1" as="geometry" />
        </mxCell>
        <mxCell id="dU6HxZh4ZYSRWgkDmvvh-9" value="" style="edgeStyle=orthogonalEdgeStyle;rounded=0;orthogonalLoop=1;jettySize=auto;html=1;" edge="1" parent="1" source="dU6HxZh4ZYSRWgkDmvvh-10" target="dU6HxZh4ZYSRWgkDmvvh-20">
          <mxGeometry relative="1" as="geometry" />
        </mxCell>
        <mxCell id="dU6HxZh4ZYSRWgkDmvvh-10" value="Profile?" style="strokeWidth=2;html=1;shape=mxgraph.flowchart.decision;whiteSpace=wrap;" vertex="1" parent="1">
          <mxGeometry x="52" y="407" width="100" height="100" as="geometry" />
        </mxCell>
        <mxCell id="dU6HxZh4ZYSRWgkDmvvh-12" value="No" style="text;html=1;align=center;verticalAlign=middle;resizable=0;points=[];autosize=1;strokeColor=none;fillColor=none;" vertex="1" parent="1">
          <mxGeometry x="102" y="246" width="40" height="30" as="geometry" />
        </mxCell>
        <mxCell id="dU6HxZh4ZYSRWgkDmvvh-14" style="edgeStyle=orthogonalEdgeStyle;rounded=0;orthogonalLoop=1;jettySize=auto;html=1;exitX=1;exitY=0.5;exitDx=0;exitDy=0;entryX=1;entryY=0.25;entryDx=0;entryDy=0;" edge="1" parent="1" source="dU6HxZh4ZYSRWgkDmvvh-15" target="dU6HxZh4ZYSRWgkDmvvh-1">
          <mxGeometry relative="1" as="geometry">
            <mxPoint x="391" y="88" as="targetPoint" />
            <Array as="points">
              <mxPoint x="391" y="202" />
              <mxPoint x="391" y="83" />
            </Array>
          </mxGeometry>
        </mxCell>
        <mxCell id="dU6HxZh4ZYSRWgkDmvvh-15" value="Menampilkan&amp;nbsp;&lt;div&gt;Jadwal dan tempat&lt;div&gt;Syntax&lt;/div&gt;&lt;/div&gt;" style="shape=parallelogram;html=1;strokeWidth=2;perimeter=parallelogramPerimeter;whiteSpace=wrap;rounded=1;arcSize=12;size=0.23;" vertex="1" parent="1">
          <mxGeometry x="177" y="172" width="170" height="60" as="geometry" />
        </mxCell>
        <mxCell id="dU6HxZh4ZYSRWgkDmvvh-16" style="edgeStyle=orthogonalEdgeStyle;rounded=0;orthogonalLoop=1;jettySize=auto;html=1;exitX=1;exitY=0.5;exitDx=0;exitDy=0;" edge="1" parent="1" source="dU6HxZh4ZYSRWgkDmvvh-17">
          <mxGeometry relative="1" as="geometry">
            <mxPoint x="391" y="198" as="targetPoint" />
          </mxGeometry>
        </mxCell>
        <mxCell id="dU6HxZh4ZYSRWgkDmvvh-17" value="Menampilkan&amp;nbsp;&lt;div&gt;Jadwal Events&lt;div&gt;Syntax&lt;/div&gt;&lt;/div&gt;" style="shape=parallelogram;html=1;strokeWidth=2;perimeter=parallelogramPerimeter;whiteSpace=wrap;rounded=1;arcSize=12;size=0.23;" vertex="1" parent="1">
          <mxGeometry x="177" y="299" width="170" height="60" as="geometry" />
        </mxCell>
        <mxCell id="dU6HxZh4ZYSRWgkDmvvh-18" value="" style="edgeStyle=orthogonalEdgeStyle;rounded=0;orthogonalLoop=1;jettySize=auto;html=1;" edge="1" parent="1" source="dU6HxZh4ZYSRWgkDmvvh-19" target="dU6HxZh4ZYSRWgkDmvvh-22">
          <mxGeometry relative="1" as="geometry" />
        </mxCell>
        <mxCell id="dU6HxZh4ZYSRWgkDmvvh-19" value="Menampilkan&amp;nbsp;&lt;div&gt;Data Profile Akun&lt;/div&gt;" style="shape=parallelogram;html=1;strokeWidth=2;perimeter=parallelogramPerimeter;whiteSpace=wrap;rounded=1;arcSize=12;size=0.23;" vertex="1" parent="1">
          <mxGeometry x="177" y="427" width="170" height="60" as="geometry" />
        </mxCell>
        <mxCell id="dU6HxZh4ZYSRWgkDmvvh-20" value="END" style="strokeWidth=2;html=1;shape=mxgraph.flowchart.terminator;whiteSpace=wrap;" vertex="1" parent="1">
          <mxGeometry x="52" y="538" width="100" height="60" as="geometry" />
        </mxCell>
        <mxCell id="dU6HxZh4ZYSRWgkDmvvh-21" value="" style="edgeStyle=orthogonalEdgeStyle;rounded=0;orthogonalLoop=1;jettySize=auto;html=1;" edge="1" parent="1" source="dU6HxZh4ZYSRWgkDmvvh-22" target="dU6HxZh4ZYSRWgkDmvvh-25">
          <mxGeometry relative="1" as="geometry" />
        </mxCell>
        <mxCell id="dU6HxZh4ZYSRWgkDmvvh-22" value="&lt;div style=&quot;text-align: justify;&quot;&gt;&lt;span style=&quot;background-color: initial;&quot;&gt;1. Attendance&lt;/span&gt;&lt;/div&gt;&lt;div style=&quot;text-align: justify;&quot;&gt;2. E-Certificate&lt;/div&gt;&lt;div style=&quot;text-align: justify;&quot;&gt;3. Logout&lt;/div&gt;" style="rounded=1;whiteSpace=wrap;html=1;absoluteArcSize=1;arcSize=14;strokeWidth=2;" vertex="1" parent="1">
          <mxGeometry x="384" y="407" width="100" height="100" as="geometry" />
        </mxCell>
        <mxCell id="dU6HxZh4ZYSRWgkDmvvh-23" value="" style="edgeStyle=orthogonalEdgeStyle;rounded=0;orthogonalLoop=1;jettySize=auto;html=1;" edge="1" parent="1" source="dU6HxZh4ZYSRWgkDmvvh-25" target="dU6HxZh4ZYSRWgkDmvvh-27">
          <mxGeometry relative="1" as="geometry" />
        </mxCell>
        <mxCell id="dU6HxZh4ZYSRWgkDmvvh-24" value="" style="edgeStyle=orthogonalEdgeStyle;rounded=0;orthogonalLoop=1;jettySize=auto;html=1;" edge="1" parent="1" source="dU6HxZh4ZYSRWgkDmvvh-25" target="dU6HxZh4ZYSRWgkDmvvh-31">
          <mxGeometry relative="1" as="geometry" />
        </mxCell>
        <mxCell id="dU6HxZh4ZYSRWgkDmvvh-25" value="Attendance?" style="strokeWidth=2;html=1;shape=mxgraph.flowchart.decision;whiteSpace=wrap;" vertex="1" parent="1">
          <mxGeometry x="384" y="548" width="100" height="100" as="geometry" />
        </mxCell>
        <mxCell id="dU6HxZh4ZYSRWgkDmvvh-26" style="edgeStyle=orthogonalEdgeStyle;rounded=0;orthogonalLoop=1;jettySize=auto;html=1;exitX=1;exitY=0.5;exitDx=0;exitDy=0;entryX=1;entryY=0.5;entryDx=0;entryDy=0;" edge="1" parent="1" source="dU6HxZh4ZYSRWgkDmvvh-27" target="dU6HxZh4ZYSRWgkDmvvh-22">
          <mxGeometry relative="1" as="geometry">
            <mxPoint x="721" y="458" as="targetPoint" />
            <Array as="points">
              <mxPoint x="721" y="598" />
              <mxPoint x="721" y="457" />
            </Array>
          </mxGeometry>
        </mxCell>
        <mxCell id="dU6HxZh4ZYSRWgkDmvvh-27" value="Menampilkan&lt;div&gt;Page Absensi&lt;/div&gt;" style="shape=parallelogram;html=1;strokeWidth=2;perimeter=parallelogramPerimeter;whiteSpace=wrap;rounded=1;arcSize=12;size=0.23;" vertex="1" parent="1">
          <mxGeometry x="516" y="568" width="148" height="60" as="geometry" />
        </mxCell>
        <mxCell id="dU6HxZh4ZYSRWgkDmvvh-28" value="Yes" style="text;html=1;align=center;verticalAlign=middle;resizable=0;points=[];autosize=1;strokeColor=none;fillColor=none;" vertex="1" parent="1">
          <mxGeometry x="484" y="567" width="40" height="30" as="geometry" />
        </mxCell>
        <mxCell id="dU6HxZh4ZYSRWgkDmvvh-29" value="" style="edgeStyle=orthogonalEdgeStyle;rounded=0;orthogonalLoop=1;jettySize=auto;html=1;" edge="1" parent="1" source="dU6HxZh4ZYSRWgkDmvvh-31" target="dU6HxZh4ZYSRWgkDmvvh-33">
          <mxGeometry relative="1" as="geometry" />
        </mxCell>
        <mxCell id="dU6HxZh4ZYSRWgkDmvvh-30" value="" style="edgeStyle=orthogonalEdgeStyle;rounded=0;orthogonalLoop=1;jettySize=auto;html=1;" edge="1" parent="1" source="dU6HxZh4ZYSRWgkDmvvh-31" target="dU6HxZh4ZYSRWgkDmvvh-37">
          <mxGeometry relative="1" as="geometry" />
        </mxCell>
        <mxCell id="dU6HxZh4ZYSRWgkDmvvh-31" value="E-Certificate?" style="strokeWidth=2;html=1;shape=mxgraph.flowchart.decision;whiteSpace=wrap;" vertex="1" parent="1">
          <mxGeometry x="384" y="679" width="100" height="100" as="geometry" />
        </mxCell>
        <mxCell id="dU6HxZh4ZYSRWgkDmvvh-32" style="edgeStyle=orthogonalEdgeStyle;rounded=0;orthogonalLoop=1;jettySize=auto;html=1;exitX=1;exitY=0.5;exitDx=0;exitDy=0;" edge="1" parent="1" source="dU6HxZh4ZYSRWgkDmvvh-33">
          <mxGeometry relative="1" as="geometry">
            <mxPoint x="721" y="598" as="targetPoint" />
          </mxGeometry>
        </mxCell>
        <mxCell id="dU6HxZh4ZYSRWgkDmvvh-33" value="Menampilkan&lt;div&gt;Page E-Sertifikat&lt;/div&gt;" style="shape=parallelogram;html=1;strokeWidth=2;perimeter=parallelogramPerimeter;whiteSpace=wrap;rounded=1;arcSize=12;size=0.23;" vertex="1" parent="1">
          <mxGeometry x="516" y="699" width="148" height="60" as="geometry" />
        </mxCell>
        <mxCell id="dU6HxZh4ZYSRWgkDmvvh-34" value="Yes" style="text;html=1;align=center;verticalAlign=middle;resizable=0;points=[];autosize=1;strokeColor=none;fillColor=none;" vertex="1" parent="1">
          <mxGeometry x="484" y="697" width="40" height="30" as="geometry" />
        </mxCell>
        <mxCell id="dU6HxZh4ZYSRWgkDmvvh-36" value="" style="edgeStyle=orthogonalEdgeStyle;rounded=0;orthogonalLoop=1;jettySize=auto;html=1;" edge="1" parent="1" source="dU6HxZh4ZYSRWgkDmvvh-37" target="dU6HxZh4ZYSRWgkDmvvh-41">
          <mxGeometry relative="1" as="geometry" />
        </mxCell>
        <mxCell id="dU6HxZh4ZYSRWgkDmvvh-37" value="Logout?" style="strokeWidth=2;html=1;shape=mxgraph.flowchart.decision;whiteSpace=wrap;" vertex="1" parent="1">
          <mxGeometry x="384" y="812" width="100" height="100" as="geometry" />
        </mxCell>
        <mxCell id="dU6HxZh4ZYSRWgkDmvvh-38" value="No" style="text;html=1;align=center;verticalAlign=middle;resizable=0;points=[];autosize=1;strokeColor=none;fillColor=none;" vertex="1" parent="1">
          <mxGeometry x="451" y="883" width="40" height="30" as="geometry" />
        </mxCell>
        <mxCell id="dU6HxZh4ZYSRWgkDmvvh-39" value="No" style="text;html=1;align=center;verticalAlign=middle;resizable=0;points=[];autosize=1;strokeColor=none;fillColor=none;" vertex="1" parent="1">
          <mxGeometry x="431" y="646" width="40" height="30" as="geometry" />
        </mxCell>
        <mxCell id="dU6HxZh4ZYSRWgkDmvvh-40" value="No" style="text;html=1;align=center;verticalAlign=middle;resizable=0;points=[];autosize=1;strokeColor=none;fillColor=none;" vertex="1" parent="1">
          <mxGeometry x="431" y="776" width="40" height="30" as="geometry" />
        </mxCell>
        <mxCell id="dU6HxZh4ZYSRWgkDmvvh-41" value="&lt;font style=&quot;font-size: 12px;&quot;&gt;Page&lt;/font&gt;&lt;div style=&quot;&quot;&gt;&lt;font style=&quot;font-size: 12px;&quot;&gt;Logout&lt;/font&gt;&lt;/div&gt;" style="verticalLabelPosition=middle;verticalAlign=middle;html=1;shape=offPageConnector;rounded=0;size=0.5;labelPosition=center;align=center;" vertex="1" parent="1">
          <mxGeometry x="531" y="832" width="60" height="60" as="geometry" />
        </mxCell>
        <mxCell id="dU6HxZh4ZYSRWgkDmvvh-42" value="Yes" style="text;html=1;align=center;verticalAlign=middle;resizable=0;points=[];autosize=1;strokeColor=none;fillColor=none;" vertex="1" parent="1">
          <mxGeometry x="482" y="830" width="40" height="30" as="geometry" />
        </mxCell>
      </root>
    </mxGraphModel>
  </diagram>
</mxfile>
